<?xml version="1.0" standalone="no"?>
<!DOCTYPE svg PUBLIC "-//W3C//DTD SVG 20010904//EN"
 "http://www.w3.org/TR/2001/REC-SVG-20010904/DTD/svg10.dtd">
<svg version="1.0" xmlns="http://www.w3.org/2000/svg"
 width="181.000000pt" height="181.000000pt" viewBox="0 0 181.000000 181.000000"
 preserveAspectRatio="xMidYMid meet">
<metadata>
Created by potrace 1.11, written by Peter Selinger 2001-2013
</metadata>
<g transform="translate(0.000000,181.000000) scale(0.100000,-0.100000)"
fill="#000000" stroke="none">
<path d="M784 1622 c17 -32 53 -143 61 -187 11 -62 5 -172 -14 -245 -12 -41
-21 -79 -21 -85 0 -5 -11 16 -24 47 -29 70 -72 138 -126 198 l-40 45 21 -55
c32 -84 34 -157 9 -320 -28 -181 -31 -241 -13 -310 30 -117 124 -236 244 -307
90 -53 95 -53 69 -3 -46 90 -7 195 140 379 50 63 102 133 116 157 78 134 87
276 28 453 -36 109 -43 116 -40 42 5 -103 -37 -220 -108 -305 l-31 -37 -1 103
c0 82 -5 115 -23 160 -38 96 -104 182 -202 261 -55 44 -64 46 -45 9z"/>
<path d="M429 526 c-2 -3 -27 -7 -54 -10 -59 -6 -71 -9 -184 -37 -104 -26
-177 -61 -186 -90 -17 -54 103 -131 253 -164 12 -3 32 -7 45 -10 67 -15 171
-30 277 -42 97 -10 553 -10 650 0 263 28 419 66 515 126 137 84 58 151 -244
206 -125 24 -172 26 -90 5 175 -44 256 -99 228 -152 -24 -45 -71 -69 -206
-103 -156 -41 -251 -49 -528 -50 -121 0 -248 3 -282 8 -35 4 -82 10 -105 13
-74 9 -207 43 -257 65 -78 33 -111 80 -84 119 20 28 120 76 192 91 46 10 92
29 70 29 -3 0 -8 -2 -10 -4z"/>
<path d="M473 455 c-126 -29 -165 -50 -161 -85 2 -20 17 -32 67 -57 36 -17 67
-31 70 -30 3 0 29 -4 56 -11 116 -27 211 -36 410 -35 200 0 325 13 455 50 107
29 164 87 117 117 -42 27 -130 52 -217 61 l-45 5 54 -15 c107 -31 140 -68 95
-110 -26 -24 -96 -47 -209 -66 -79 -15 -387 -18 -485 -6 -258 32 -343 126
-160 178 35 10 81 32 60 28 -3 0 -51 -11 -107 -24z"/>
<path d="M627 415 c-62 -17 -81 -33 -65 -52 30 -36 163 -63 318 -64 202 -1
328 20 366 62 22 24 13 33 -51 50 -70 18 -81 19 -47 4 101 -47 9 -93 -198 -99
-138 -4 -227 5 -289 30 -51 20 -52 38 -3 63 43 23 36 24 -31 6z"/>
</g>
</svg>
